<svg width="76" height="33" viewBox="0 0 76 33" fill="none" xmlns="http://www.w3.org/2000/svg">
<path d="M9.0505 32.3124C7.43434 32.3124 5.81818 31.9861 4.52525 31.0069C3.23232 30.0277 1.93939 28.7222 1.29293 27.4166C0.323232 25.7847 0 23.8263 0 21.868C0 19.9097 0.323232 17.9513 1.29293 16.3194C2.26263 14.6874 3.23232 13.3819 4.52525 12.4027C5.81818 11.4236 7.43434 11.0972 9.37374 11.0972C10.6667 11.0972 11.9596 11.4236 13.2525 12.0763C14.2222 12.7291 15.1919 13.7083 15.8384 14.6874V11.7499H21.0101V31.6597H15.8384V28.7222C14.2222 31.0069 12.2828 32.3124 9.0505 32.3124ZM10.6667 27.4166C12.2828 27.4166 13.5758 26.7638 14.5455 25.7847C15.5152 24.8055 16.1616 23.4999 16.1616 21.5416C16.1616 19.9097 15.5152 18.6041 14.5455 17.2986C13.2525 16.6458 12.2828 15.993 10.6667 15.993C9.0505 15.993 7.75758 16.6458 6.78788 17.6249C5.81818 18.6041 5.49495 20.2361 5.49495 21.868C5.49495 23.4999 6.14141 24.8055 7.11111 26.1111C7.75758 27.0902 9.0505 27.4166 10.6667 27.4166Z" fill="white"/>
<path d="M32.2929 31.6597V0H37.7879V31.6597H32.2929Z" fill="white"/>
<path d="M52.6868 31.6598V16.3195H48.808V11.7501H52.6868V6.52783H58.1818V12.0764H63.0303V16.3195H58.1818V31.9862H52.6868V31.6598Z" fill="white"/>
<path d="M72.7273 31.6596C74.5125 31.6596 75.9596 30.1983 75.9596 28.3957C75.9596 26.5931 74.5125 25.1318 72.7273 25.1318C70.9422 25.1318 69.495 26.5931 69.495 28.3957C69.495 30.1983 70.9422 31.6596 72.7273 31.6596Z" fill="white"/>
</svg>
