<svg width="76" height="33" viewBox="0 0 76 33" fill="none" xmlns="http://www.w3.org/2000/svg">
<path d="M9.0505 32.5469C7.43434 32.5469 5.81818 32.2205 4.52525 31.2413C3.23232 30.2622 1.93939 28.9566 1.29293 27.651C0.323232 26.0191 0 24.0608 0 22.1024C0 20.1441 0.323232 18.1858 1.29293 16.5538C2.26263 14.9219 3.23232 13.6163 4.52525 12.6372C5.81818 11.658 7.43434 11.3316 9.37374 11.3316C10.6667 11.3316 11.9596 11.658 13.2525 12.3108C14.2222 12.9635 15.1919 13.9427 15.8384 14.9219V11.9844H21.0101V31.8941H15.8384V28.9566C14.2222 31.2413 12.2828 32.5469 9.0505 32.5469ZM10.6667 27.651C12.2828 27.651 13.5758 26.9983 14.5455 26.0191C15.5152 25.0399 16.1616 23.7344 16.1616 21.776C16.1616 20.1441 15.5152 18.8385 14.5455 17.533C13.2525 16.8802 12.2828 16.2274 10.6667 16.2274C9.0505 16.2274 7.75758 16.8802 6.78788 17.8594C5.81818 18.8385 5.49495 20.4705 5.49495 22.1024C5.49495 23.7344 6.14141 25.0399 7.11111 26.3455C7.75758 27.3247 9.0505 27.651 10.6667 27.651Z" fill="#333333"/>
<path d="M32.2929 31.8941V0.234375H37.7879V31.8941H32.2929Z" fill="#333333"/>
<path d="M52.6868 31.8941V16.5538H48.808V11.9844H52.6868V6.76218H58.1818V12.3108H63.0303V16.5538H58.1818V32.2205H52.6868V31.8941Z" fill="#333333"/>
<path d="M72.7273 31.8941C74.5125 31.8941 75.9596 30.4328 75.9596 28.6302C75.9596 26.8276 74.5125 25.3663 72.7273 25.3663C70.9422 25.3663 69.495 26.8276 69.495 28.6302C69.495 30.4328 70.9422 31.8941 72.7273 31.8941Z" fill="#333333"/>
</svg>
